# xmcd
#
# Track frame offsets:
#	150
#	16429
#	33020
#	49275
#	63070
#	77247
#	89908
#	102369
#	113564
#	126832
#	139941
#	149880
#	163454
#	177086
#	190195
#	203372
#	218135
#	230042
#	241659
#	272619
#
# Disc length: 3997 seconds
#
# Revision: 0
# Processed by: cddbd v1.5.2PL0 Copyright (c) Steve Scherf et al.
# Submitted via: audiograbber 1.83.01
#
DISCID=220f9b14
DTITLE=Various Artist - Rhythm and Soul  - CD4
DYEAR=1960
DGENRE=Soul
TTITLE0=Diana Ross - Ain'T No Mountain High Enough 
TTITLE1=Ike and Tina Turner - Higher Ground 
TTITLE2=Nina Simone - My Baby Just Cares For Me 
TTITLE3=Etta James - I Just Want To Make Love To You 
TTITLE4=Eddie Floyd - Knock On Wood
TTITLE5=Mary Wells - My Guy 
TTITLE6=The Isley Brothers - This Old Heart Of Mine (Is Weak For You) 
TTITLE7=The Emotions - I Like It 
TTITLE8=The Miracles - You'Ve Really Got A Hold On Me 
TTITLE9=James Brown and Lyn Collins - What My Baby Needs Now Is A Little More Lov
TTITLE9=in' 
TTITLE10=Mamie Galore - It Ain'T Necessary 
TTITLE11=Bo Diddley - I'M A Man 
TTITLE12=Johnny Taylor - Jody'S Got Your Girl And Gone 
TTITLE13=Bobby Byrd - I'M Not To Blame 
TTITLE14=Jimmy Ruffin - What Becomes Of The Brokenhearted 
TTITLE15=The Originals - Baby, I'M For Real 
TTITLE16=William Bell - I Forgot To Be Your Lover 
TTITLE17=The Impressions - Keep On Pushing 
TTITLE18=Wilson Pickett - Stomp
TTITLE19=Marlena Shaw - Woman Of The Ghetto 
EXTD=
EXTT0=
EXTT1=
EXTT2=
EXTT3=
EXTT4=
EXTT5=
EXTT6=
EXTT7=
EXTT8=
EXTT9=
EXTT10=
EXTT11=
EXTT12=
EXTT13=
EXTT14=
EXTT15=
EXTT16=
EXTT17=
EXTT18=
EXTT19=
PLAYORDER=
